<?xml version="1.0" encoding="utf-8" standalone="no"?>
<!DOCTYPE svg PUBLIC "-//W3C//DTD SVG 1.1//EN"
  "http://www.w3.org/Graphics/SVG/1.1/DTD/svg11.dtd">
<!-- Created with matplotlib (http://matplotlib.org/) -->
<svg height="432pt" version="1.1" viewBox="0 0 576 432" width="576pt" xmlns="http://www.w3.org/2000/svg" xmlns:xlink="http://www.w3.org/1999/xlink">
 <defs>
  <style type="text/css">
*{stroke-linecap:butt;stroke-linejoin:round;}
  </style>
 </defs>
 <g id="figure_1">
  <g id="patch_1">
   <path d="M 0 432 
L 576 432 
L 576 0 
L 0 0 
z
" style="fill:#ffffff;"/>
  </g>
  <g id="axes_1">
   <g id="patch_2">
    <path d="M 72 384.48 
L 518.4 384.48 
L 518.4 51.84 
L 72 51.84 
z
" style="fill:#ffffff;"/>
   </g>
   <g id="PathCollection_1">
    <defs>
     <path d="M 0 3 
C 0.795609 3 1.55874 2.683901 2.12132 2.12132 
C 2.683901 1.55874 3 0.795609 3 0 
C 3 -0.795609 2.683901 -1.55874 2.12132 -2.12132 
C 1.55874 -2.683901 0.795609 -3 0 -3 
C -0.795609 -3 -1.55874 -2.683901 -2.12132 -2.12132 
C -2.683901 -1.55874 -3 -0.795609 -3 0 
C -3 0.795609 -2.683901 1.55874 -2.12132 2.12132 
C -1.55874 2.683901 -0.795609 3 0 3 
z
" id="C0_0_bc936d6332"/>
    </defs>
    <g clip-path="url(#p21799af908)">
     <use style="fill:#0000ff;stroke:#0000ff;" x="253.92488" xlink:href="#C0_0_bc936d6332" y="367.256686"/>
    </g>
    <g clip-path="url(#p21799af908)">
     <use style="fill:#0000ff;stroke:#0000ff;" x="254.285879" xlink:href="#C0_0_bc936d6332" y="367.036524"/>
    </g>
    <g clip-path="url(#p21799af908)">
     <use style="fill:#ff0000;stroke:#ff0000;" x="367.727177" xlink:href="#C0_0_bc936d6332" y="68.961107"/>
    </g>
    <g clip-path="url(#p21799af908)">
     <use style="fill:#0000ff;stroke:#0000ff;" x="228.943314" xlink:href="#C0_0_bc936d6332" y="367.369735"/>
    </g>
    <g clip-path="url(#p21799af908)">
     <use style="fill:#0000ff;stroke:#0000ff;" x="158.294292" xlink:href="#C0_0_bc936d6332" y="367.34062"/>
    </g>
    <g clip-path="url(#p21799af908)">
     <use style="fill:#ff0000;stroke:#ff0000;" x="354.774037" xlink:href="#C0_0_bc936d6332" y="69.002853"/>
    </g>
    <g clip-path="url(#p21799af908)">
     <use style="fill:#0000ff;stroke:#0000ff;" x="219.270853" xlink:href="#C0_0_bc936d6332" y="367.391654"/>
    </g>
    <g clip-path="url(#p21799af908)">
     <use style="fill:#0000ff;stroke:#0000ff;" x="251.873994" xlink:href="#C0_0_bc936d6332" y="367.338257"/>
    </g>
    <g clip-path="url(#p21799af908)">
     <use style="fill:#ff0000;stroke:#ff0000;" x="473.877307" xlink:href="#C0_0_bc936d6332" y="68.900217"/>
    </g>
    <g clip-path="url(#p21799af908)">
     <use style="fill:#ff0000;stroke:#ff0000;" x="383.351083" xlink:href="#C0_0_bc936d6332" y="68.920591"/>
    </g>
    <g clip-path="url(#p21799af908)">
     <use style="fill:#0000ff;stroke:#0000ff;" x="208.436639" xlink:href="#C0_0_bc936d6332" y="367.381846"/>
    </g>
    <g clip-path="url(#p21799af908)">
     <use style="fill:#ff0000;stroke:#ff0000;" x="389.692622" xlink:href="#C0_0_bc936d6332" y="68.926076"/>
    </g>
    <g clip-path="url(#p21799af908)">
     <use style="fill:#ff0000;stroke:#ff0000;" x="343.821059" xlink:href="#C0_0_bc936d6332" y="74.050983"/>
    </g>
    <g clip-path="url(#p21799af908)">
     <use style="fill:#0000ff;stroke:#0000ff;" x="232.77928" xlink:href="#C0_0_bc936d6332" y="367.383001"/>
    </g>
    <g clip-path="url(#p21799af908)">
     <use style="fill:#0000ff;stroke:#0000ff;" x="243.51091" xlink:href="#C0_0_bc936d6332" y="367.383919"/>
    </g>
    <g clip-path="url(#p21799af908)">
     <use style="fill:#0000ff;stroke:#0000ff;" x="216.0819" xlink:href="#C0_0_bc936d6332" y="367.390645"/>
    </g>
    <g clip-path="url(#p21799af908)">
     <use style="fill:#0000ff;stroke:#0000ff;" x="238.211558" xlink:href="#C0_0_bc936d6332" y="367.399396"/>
    </g>
    <g clip-path="url(#p21799af908)">
     <use style="fill:#ff0000;stroke:#ff0000;" x="362.569696" xlink:href="#C0_0_bc936d6332" y="68.99564"/>
    </g>
    <g clip-path="url(#p21799af908)">
     <use style="fill:#0000ff;stroke:#0000ff;" x="242.790823" xlink:href="#C0_0_bc936d6332" y="367.28788"/>
    </g>
    <g clip-path="url(#p21799af908)">
     <use style="fill:#ff0000;stroke:#ff0000;" x="491.800213" xlink:href="#C0_0_bc936d6332" y="68.900644"/>
    </g>
    <g clip-path="url(#p21799af908)">
     <use style="fill:#ff0000;stroke:#ff0000;" x="344.324205" xlink:href="#C0_0_bc936d6332" y="69.09003"/>
    </g>
    <g clip-path="url(#p21799af908)">
     <use style="fill:#0000ff;stroke:#0000ff;" x="232.437022" xlink:href="#C0_0_bc936d6332" y="367.359295"/>
    </g>
    <g clip-path="url(#p21799af908)">
     <use style="fill:#0000ff;stroke:#0000ff;" x="236.380221" xlink:href="#C0_0_bc936d6332" y="366.382377"/>
    </g>
    <g clip-path="url(#p21799af908)">
     <use style="fill:#ff0000;stroke:#ff0000;" x="352.65472" xlink:href="#C0_0_bc936d6332" y="69.22239"/>
    </g>
    <g clip-path="url(#p21799af908)">
     <use style="fill:#0000ff;stroke:#0000ff;" x="215.625781" xlink:href="#C0_0_bc936d6332" y="367.378785"/>
    </g>
    <g clip-path="url(#p21799af908)">
     <use style="fill:#ff0000;stroke:#ff0000;" x="365.921371" xlink:href="#C0_0_bc936d6332" y="68.981054"/>
    </g>
    <g clip-path="url(#p21799af908)">
     <use style="fill:#0000ff;stroke:#0000ff;" x="210.07147" xlink:href="#C0_0_bc936d6332" y="367.160651"/>
    </g>
    <g clip-path="url(#p21799af908)">
     <use style="fill:#0000ff;stroke:#0000ff;" x="245.940413" xlink:href="#C0_0_bc936d6332" y="367.403533"/>
    </g>
    <g clip-path="url(#p21799af908)">
     <use style="fill:#0000ff;stroke:#0000ff;" x="214.696384" xlink:href="#C0_0_bc936d6332" y="367.184656"/>
    </g>
    <g clip-path="url(#p21799af908)">
     <use style="fill:#0000ff;stroke:#0000ff;" x="236.899117" xlink:href="#C0_0_bc936d6332" y="367.34464"/>
    </g>
    <g clip-path="url(#p21799af908)">
     <use style="fill:#0000ff;stroke:#0000ff;" x="191.050539" xlink:href="#C0_0_bc936d6332" y="367.419783"/>
    </g>
    <g clip-path="url(#p21799af908)">
     <use style="fill:#0000ff;stroke:#0000ff;" x="200.434485" xlink:href="#C0_0_bc936d6332" y="367.230417"/>
    </g>
    <g clip-path="url(#p21799af908)">
     <use style="fill:#0000ff;stroke:#0000ff;" x="208.509289" xlink:href="#C0_0_bc936d6332" y="367.353321"/>
    </g>
    <g clip-path="url(#p21799af908)">
     <use style="fill:#0000ff;stroke:#0000ff;" x="203.705738" xlink:href="#C0_0_bc936d6332" y="367.366613"/>
    </g>
    <g clip-path="url(#p21799af908)">
     <use style="fill:#ff0000;stroke:#ff0000;" x="368.233408" xlink:href="#C0_0_bc936d6332" y="68.966539"/>
    </g>
    <g clip-path="url(#p21799af908)">
     <use style="fill:#0000ff;stroke:#0000ff;" x="215.892152" xlink:href="#C0_0_bc936d6332" y="366.951314"/>
    </g>
    <g clip-path="url(#p21799af908)">
     <use style="fill:#0000ff;stroke:#0000ff;" x="235.098939" xlink:href="#C0_0_bc936d6332" y="367.111945"/>
    </g>
    <g clip-path="url(#p21799af908)">
     <use style="fill:#ff0000;stroke:#ff0000;" x="489.171939" xlink:href="#C0_0_bc936d6332" y="68.900323"/>
    </g>
    <g clip-path="url(#p21799af908)">
     <use style="fill:#ff0000;stroke:#ff0000;" x="343.62308" xlink:href="#C0_0_bc936d6332" y="72.13618"/>
    </g>
    <g clip-path="url(#p21799af908)">
     <use style="fill:#0000ff;stroke:#0000ff;" x="274.559709" xlink:href="#C0_0_bc936d6332" y="367.139001"/>
    </g>
    <g clip-path="url(#p21799af908)">
     <use style="fill:#ff0000;stroke:#ff0000;" x="364.696021" xlink:href="#C0_0_bc936d6332" y="68.985934"/>
    </g>
    <g clip-path="url(#p21799af908)">
     <use style="fill:#ff0000;stroke:#ff0000;" x="352.074415" xlink:href="#C0_0_bc936d6332" y="69.211882"/>
    </g>
    <g clip-path="url(#p21799af908)">
     <use style="fill:#ff0000;stroke:#ff0000;" x="359.687071" xlink:href="#C0_0_bc936d6332" y="68.954607"/>
    </g>
    <g clip-path="url(#p21799af908)">
     <use style="fill:#0000ff;stroke:#0000ff;" x="236.640071" xlink:href="#C0_0_bc936d6332" y="367.397839"/>
    </g>
    <g clip-path="url(#p21799af908)">
     <use style="fill:#ff0000;stroke:#ff0000;" x="359.004339" xlink:href="#C0_0_bc936d6332" y="68.959754"/>
    </g>
    <g clip-path="url(#p21799af908)">
     <use style="fill:#ff0000;stroke:#ff0000;" x="357.78248" xlink:href="#C0_0_bc936d6332" y="68.98255"/>
    </g>
    <g clip-path="url(#p21799af908)">
     <use style="fill:#ff0000;stroke:#ff0000;" x="365.291018" xlink:href="#C0_0_bc936d6332" y="68.933859"/>
    </g>
    <g clip-path="url(#p21799af908)">
     <use style="fill:#0000ff;stroke:#0000ff;" x="199.86129" xlink:href="#C0_0_bc936d6332" y="367.395841"/>
    </g>
    <g clip-path="url(#p21799af908)">
     <use style="fill:#0000ff;stroke:#0000ff;" x="233.475025" xlink:href="#C0_0_bc936d6332" y="367.288119"/>
    </g>
    <g clip-path="url(#p21799af908)">
     <use style="fill:#ff0000;stroke:#ff0000;" x="357.377037" xlink:href="#C0_0_bc936d6332" y="68.93482"/>
    </g>
    <g clip-path="url(#p21799af908)">
     <use style="fill:#0000ff;stroke:#0000ff;" x="203.606798" xlink:href="#C0_0_bc936d6332" y="367.341218"/>
    </g>
    <g clip-path="url(#p21799af908)">
     <use style="fill:#ff0000;stroke:#ff0000;" x="459.981233" xlink:href="#C0_0_bc936d6332" y="68.901321"/>
    </g>
    <g clip-path="url(#p21799af908)">
     <use style="fill:#0000ff;stroke:#0000ff;" x="216.544971" xlink:href="#C0_0_bc936d6332" y="367.389981"/>
    </g>
    <g clip-path="url(#p21799af908)">
     <use style="fill:#0000ff;stroke:#0000ff;" x="217.388893" xlink:href="#C0_0_bc936d6332" y="367.350255"/>
    </g>
    <g clip-path="url(#p21799af908)">
     <use style="fill:#0000ff;stroke:#0000ff;" x="206.16331" xlink:href="#C0_0_bc936d6332" y="366.706583"/>
    </g>
    <g clip-path="url(#p21799af908)">
     <use style="fill:#0000ff;stroke:#0000ff;" x="242.839022" xlink:href="#C0_0_bc936d6332" y="367.324478"/>
    </g>
    <g clip-path="url(#p21799af908)">
     <use style="fill:#0000ff;stroke:#0000ff;" x="224.606978" xlink:href="#C0_0_bc936d6332" y="367.345298"/>
    </g>
    <g clip-path="url(#p21799af908)">
     <use style="fill:#0000ff;stroke:#0000ff;" x="216.874175" xlink:href="#C0_0_bc936d6332" y="367.239885"/>
    </g>
    <g clip-path="url(#p21799af908)">
     <use style="fill:#0000ff;stroke:#0000ff;" x="210.081651" xlink:href="#C0_0_bc936d6332" y="367.418771"/>
    </g>
    <g clip-path="url(#p21799af908)">
     <use style="fill:#0000ff;stroke:#0000ff;" x="240.691561" xlink:href="#C0_0_bc936d6332" y="367.355598"/>
    </g>
    <g clip-path="url(#p21799af908)">
     <use style="fill:#0000ff;stroke:#0000ff;" x="206.269931" xlink:href="#C0_0_bc936d6332" y="367.21602"/>
    </g>
    <g clip-path="url(#p21799af908)">
     <use style="fill:#0000ff;stroke:#0000ff;" x="225.93163" xlink:href="#C0_0_bc936d6332" y="367.413386"/>
    </g>
    <g clip-path="url(#p21799af908)">
     <use style="fill:#0000ff;stroke:#0000ff;" x="224.186537" xlink:href="#C0_0_bc936d6332" y="367.252049"/>
    </g>
    <g clip-path="url(#p21799af908)">
     <use style="fill:#0000ff;stroke:#0000ff;" x="229.154343" xlink:href="#C0_0_bc936d6332" y="367.300518"/>
    </g>
    <g clip-path="url(#p21799af908)">
     <use style="fill:#0000ff;stroke:#0000ff;" x="246.258202" xlink:href="#C0_0_bc936d6332" y="367.34977"/>
    </g>
    <g clip-path="url(#p21799af908)">
     <use style="fill:#ff0000;stroke:#ff0000;" x="361.961597" xlink:href="#C0_0_bc936d6332" y="69.067928"/>
    </g>
    <g clip-path="url(#p21799af908)">
     <use style="fill:#0000ff;stroke:#0000ff;" x="268.193052" xlink:href="#C0_0_bc936d6332" y="367.188295"/>
    </g>
    <g clip-path="url(#p21799af908)">
     <use style="fill:#0000ff;stroke:#0000ff;" x="225.390717" xlink:href="#C0_0_bc936d6332" y="366.382328"/>
    </g>
    <g clip-path="url(#p21799af908)">
     <use style="fill:#ff0000;stroke:#ff0000;" x="354.150048" xlink:href="#C0_0_bc936d6332" y="69.145204"/>
    </g>
    <g clip-path="url(#p21799af908)">
     <use style="fill:#ff0000;stroke:#ff0000;" x="421.897826" xlink:href="#C0_0_bc936d6332" y="68.90214"/>
    </g>
    <g clip-path="url(#p21799af908)">
     <use style="fill:#ff0000;stroke:#ff0000;" x="359.824993" xlink:href="#C0_0_bc936d6332" y="68.935675"/>
    </g>
    <g clip-path="url(#p21799af908)">
     <use style="fill:#0000ff;stroke:#0000ff;" x="227.978819" xlink:href="#C0_0_bc936d6332" y="367.383678"/>
    </g>
    <g clip-path="url(#p21799af908)">
     <use style="fill:#0000ff;stroke:#0000ff;" x="221.583063" xlink:href="#C0_0_bc936d6332" y="367.102675"/>
    </g>
    <g clip-path="url(#p21799af908)">
     <use style="fill:#0000ff;stroke:#0000ff;" x="245.628071" xlink:href="#C0_0_bc936d6332" y="367.23027"/>
    </g>
    <g clip-path="url(#p21799af908)">
     <use style="fill:#0000ff;stroke:#0000ff;" x="253.780043" xlink:href="#C0_0_bc936d6332" y="367.348897"/>
    </g>
    <g clip-path="url(#p21799af908)">
     <use style="fill:#0000ff;stroke:#0000ff;" x="226.978125" xlink:href="#C0_0_bc936d6332" y="367.40183"/>
    </g>
    <g clip-path="url(#p21799af908)">
     <use style="fill:#0000ff;stroke:#0000ff;" x="221.813464" xlink:href="#C0_0_bc936d6332" y="367.368062"/>
    </g>
    <g clip-path="url(#p21799af908)">
     <use style="fill:#0000ff;stroke:#0000ff;" x="198.621304" xlink:href="#C0_0_bc936d6332" y="367.396891"/>
    </g>
    <g clip-path="url(#p21799af908)">
     <use style="fill:#ff0000;stroke:#ff0000;" x="358.128694" xlink:href="#C0_0_bc936d6332" y="69.646914"/>
    </g>
    <g clip-path="url(#p21799af908)">
     <use style="fill:#0000ff;stroke:#0000ff;" x="221.316425" xlink:href="#C0_0_bc936d6332" y="367.371097"/>
    </g>
    <g clip-path="url(#p21799af908)">
     <use style="fill:#0000ff;stroke:#0000ff;" x="153.169344" xlink:href="#C0_0_bc936d6332" y="367.393234"/>
    </g>
    <g clip-path="url(#p21799af908)">
     <use style="fill:#0000ff;stroke:#0000ff;" x="245.301192" xlink:href="#C0_0_bc936d6332" y="367.340114"/>
    </g>
    <g clip-path="url(#p21799af908)">
     <use style="fill:#ff0000;stroke:#ff0000;" x="376.257626" xlink:href="#C0_0_bc936d6332" y="68.942514"/>
    </g>
    <g clip-path="url(#p21799af908)">
     <use style="fill:#ff0000;stroke:#ff0000;" x="421.265756" xlink:href="#C0_0_bc936d6332" y="68.904972"/>
    </g>
    <g clip-path="url(#p21799af908)">
     <use style="fill:#ff0000;stroke:#ff0000;" x="384.088951" xlink:href="#C0_0_bc936d6332" y="68.928106"/>
    </g>
    <g clip-path="url(#p21799af908)">
     <use style="fill:#0000ff;stroke:#0000ff;" x="221.600808" xlink:href="#C0_0_bc936d6332" y="367.370487"/>
    </g>
    <g clip-path="url(#p21799af908)">
     <use style="fill:#ff0000;stroke:#ff0000;" x="495.219629" xlink:href="#C0_0_bc936d6332" y="68.900252"/>
    </g>
    <g clip-path="url(#p21799af908)">
     <use style="fill:#0000ff;stroke:#0000ff;" x="223.83311" xlink:href="#C0_0_bc936d6332" y="367.38758"/>
    </g>
    <g clip-path="url(#p21799af908)">
     <use style="fill:#0000ff;stroke:#0000ff;" x="253.198176" xlink:href="#C0_0_bc936d6332" y="366.738079"/>
    </g>
    <g clip-path="url(#p21799af908)">
     <use style="fill:#ff0000;stroke:#ff0000;" x="371.81625" xlink:href="#C0_0_bc936d6332" y="68.942158"/>
    </g>
    <g clip-path="url(#p21799af908)">
     <use style="fill:#0000ff;stroke:#0000ff;" x="196.024627" xlink:href="#C0_0_bc936d6332" y="367.378918"/>
    </g>
    <g clip-path="url(#p21799af908)">
     <use style="fill:#0000ff;stroke:#0000ff;" x="93.223429" xlink:href="#C0_0_bc936d6332" y="367.392725"/>
    </g>
    <g clip-path="url(#p21799af908)">
     <use style="fill:#0000ff;stroke:#0000ff;" x="178.840028" xlink:href="#C0_0_bc936d6332" y="367.41934"/>
    </g>
    <g clip-path="url(#p21799af908)">
     <use style="fill:#0000ff;stroke:#0000ff;" x="207.779939" xlink:href="#C0_0_bc936d6332" y="367.393221"/>
    </g>
    <g clip-path="url(#p21799af908)">
     <use style="fill:#0000ff;stroke:#0000ff;" x="231.006259" xlink:href="#C0_0_bc936d6332" y="367.233079"/>
    </g>
    <g clip-path="url(#p21799af908)">
     <use style="fill:#ff0000;stroke:#ff0000;" x="394.03717" xlink:href="#C0_0_bc936d6332" y="68.914518"/>
    </g>
    <g clip-path="url(#p21799af908)">
     <use style="fill:#ff0000;stroke:#ff0000;" x="346.506795" xlink:href="#C0_0_bc936d6332" y="69.204438"/>
    </g>
    <g clip-path="url(#p21799af908)">
     <use style="fill:#ff0000;stroke:#ff0000;" x="497.176571" xlink:href="#C0_0_bc936d6332" y="68.900252"/>
    </g>
    <g clip-path="url(#p21799af908)">
     <use style="fill:#0000ff;stroke:#0000ff;" x="240.167298" xlink:href="#C0_0_bc936d6332" y="367.384718"/>
    </g>
    <g clip-path="url(#p21799af908)">
     <use style="fill:#0000ff;stroke:#0000ff;" x="214.009502" xlink:href="#C0_0_bc936d6332" y="367.370337"/>
    </g>
    <g clip-path="url(#p21799af908)">
     <use style="fill:#0000ff;stroke:#0000ff;" x="203.936144" xlink:href="#C0_0_bc936d6332" y="367.390485"/>
    </g>
    <g clip-path="url(#p21799af908)">
     <use style="fill:#0000ff;stroke:#0000ff;" x="223.997079" xlink:href="#C0_0_bc936d6332" y="367.40712"/>
    </g>
    <g clip-path="url(#p21799af908)">
     <use style="fill:#ff0000;stroke:#ff0000;" x="377.699123" xlink:href="#C0_0_bc936d6332" y="68.912594"/>
    </g>
    <g clip-path="url(#p21799af908)">
     <use style="fill:#ff0000;stroke:#ff0000;" x="457.441719" xlink:href="#C0_0_bc936d6332" y="68.900786"/>
    </g>
    <g clip-path="url(#p21799af908)">
     <use style="fill:#ff0000;stroke:#ff0000;" x="450.941204" xlink:href="#C0_0_bc936d6332" y="68.900573"/>
    </g>
    <g clip-path="url(#p21799af908)">
     <use style="fill:#ff0000;stroke:#ff0000;" x="375.56694" xlink:href="#C0_0_bc936d6332" y="69.044829"/>
    </g>
    <g clip-path="url(#p21799af908)">
     <use style="fill:#0000ff;stroke:#0000ff;" x="234.51552" xlink:href="#C0_0_bc936d6332" y="366.990142"/>
    </g>
    <g clip-path="url(#p21799af908)">
     <use style="fill:#ff0000;stroke:#ff0000;" x="366.822885" xlink:href="#C0_0_bc936d6332" y="68.96832"/>
    </g>
    <g clip-path="url(#p21799af908)">
     <use style="fill:#ff0000;stroke:#ff0000;" x="341.00368" xlink:href="#C0_0_bc936d6332" y="69.546433"/>
    </g>
    <g clip-path="url(#p21799af908)">
     <use style="fill:#ff0000;stroke:#ff0000;" x="464.623512" xlink:href="#C0_0_bc936d6332" y="68.900466"/>
    </g>
    <g clip-path="url(#p21799af908)">
     <use style="fill:#0000ff;stroke:#0000ff;" x="238.327875" xlink:href="#C0_0_bc936d6332" y="367.283601"/>
    </g>
    <g clip-path="url(#p21799af908)">
     <use style="fill:#0000ff;stroke:#0000ff;" x="235.962776" xlink:href="#C0_0_bc936d6332" y="367.390348"/>
    </g>
    <g clip-path="url(#p21799af908)">
     <use style="fill:#0000ff;stroke:#0000ff;" x="246.28463" xlink:href="#C0_0_bc936d6332" y="367.235059"/>
    </g>
    <g clip-path="url(#p21799af908)">
     <use style="fill:#ff0000;stroke:#ff0000;" x="354.475321" xlink:href="#C0_0_bc936d6332" y="69.022016"/>
    </g>
    <g clip-path="url(#p21799af908)">
     <use style="fill:#ff0000;stroke:#ff0000;" x="461.145377" xlink:href="#C0_0_bc936d6332" y="68.900288"/>
    </g>
    <g clip-path="url(#p21799af908)">
     <use style="fill:#ff0000;stroke:#ff0000;" x="457.193844" xlink:href="#C0_0_bc936d6332" y="68.90043"/>
    </g>
    <g clip-path="url(#p21799af908)">
     <use style="fill:#0000ff;stroke:#0000ff;" x="209.683649" xlink:href="#C0_0_bc936d6332" y="367.077287"/>
    </g>
    <g clip-path="url(#p21799af908)">
     <use style="fill:#ff0000;stroke:#ff0000;" x="362.408188" xlink:href="#C0_0_bc936d6332" y="68.978097"/>
    </g>
    <g clip-path="url(#p21799af908)">
     <use style="fill:#0000ff;stroke:#0000ff;" x="230.209589" xlink:href="#C0_0_bc936d6332" y="367.418642"/>
    </g>
    <g clip-path="url(#p21799af908)">
     <use style="fill:#0000ff;stroke:#0000ff;" x="199.028932" xlink:href="#C0_0_bc936d6332" y="367.381711"/>
    </g>
    <g clip-path="url(#p21799af908)">
     <use style="fill:#0000ff;stroke:#0000ff;" x="204.764732" xlink:href="#C0_0_bc936d6332" y="367.297078"/>
    </g>
    <g clip-path="url(#p21799af908)">
     <use style="fill:#0000ff;stroke:#0000ff;" x="231.559451" xlink:href="#C0_0_bc936d6332" y="367.305807"/>
    </g>
    <g clip-path="url(#p21799af908)">
     <use style="fill:#0000ff;stroke:#0000ff;" x="217.342231" xlink:href="#C0_0_bc936d6332" y="367.262241"/>
    </g>
    <g clip-path="url(#p21799af908)">
     <use style="fill:#0000ff;stroke:#0000ff;" x="205.885458" xlink:href="#C0_0_bc936d6332" y="367.382024"/>
    </g>
    <g clip-path="url(#p21799af908)">
     <use style="fill:#ff0000;stroke:#ff0000;" x="359.419091" xlink:href="#C0_0_bc936d6332" y="69.048623"/>
    </g>
    <g clip-path="url(#p21799af908)">
     <use style="fill:#ff0000;stroke:#ff0000;" x="384.553642" xlink:href="#C0_0_bc936d6332" y="68.917937"/>
    </g>
    <g clip-path="url(#p21799af908)">
     <use style="fill:#ff0000;stroke:#ff0000;" x="348.314366" xlink:href="#C0_0_bc936d6332" y="69.80793"/>
    </g>
    <g clip-path="url(#p21799af908)">
     <use style="fill:#0000ff;stroke:#0000ff;" x="182.655633" xlink:href="#C0_0_bc936d6332" y="367.375531"/>
    </g>
   </g>
   <g id="matplotlib.axis_1">
    <g id="xtick_1">
     <g id="line2d_1">
      <defs>
       <path d="M 0 0 
L 0 3.5 
" id="mf2fe237bc0" style="stroke:#000000;stroke-width:0.8;"/>
      </defs>
      <g>
       <use style="stroke:#000000;stroke-width:0.8;" x="130.117046" xlink:href="#mf2fe237bc0" y="384.48"/>
      </g>
     </g>
     <g id="text_1">
      <!-- −0.5 -->
      <defs>
       <path d="M 10.59375 35.5 
L 73.1875 35.5 
L 73.1875 27.203125 
L 10.59375 27.203125 
z
" id="DejaVuSans-2212"/>
       <path d="M 31.78125 66.40625 
Q 24.171875 66.40625 20.328125 58.90625 
Q 16.5 51.421875 16.5 36.375 
Q 16.5 21.390625 20.328125 13.890625 
Q 24.171875 6.390625 31.78125 6.390625 
Q 39.453125 6.390625 43.28125 13.890625 
Q 47.125 21.390625 47.125 36.375 
Q 47.125 51.421875 43.28125 58.90625 
Q 39.453125 66.40625 31.78125 66.40625 
z
M 31.78125 74.21875 
Q 44.046875 74.21875 50.515625 64.515625 
Q 56.984375 54.828125 56.984375 36.375 
Q 56.984375 17.96875 50.515625 8.265625 
Q 44.046875 -1.421875 31.78125 -1.421875 
Q 19.53125 -1.421875 13.0625 8.265625 
Q 6.59375 17.96875 6.59375 36.375 
Q 6.59375 54.828125 13.0625 64.515625 
Q 19.53125 74.21875 31.78125 74.21875 
z
" id="DejaVuSans-30"/>
       <path d="M 10.6875 12.40625 
L 21 12.40625 
L 21 0 
L 10.6875 0 
z
" id="DejaVuSans-2e"/>
       <path d="M 10.796875 72.90625 
L 49.515625 72.90625 
L 49.515625 64.59375 
L 19.828125 64.59375 
L 19.828125 46.734375 
Q 21.96875 47.46875 24.109375 47.828125 
Q 26.265625 48.1875 28.421875 48.1875 
Q 40.625 48.1875 47.75 41.5 
Q 54.890625 34.8125 54.890625 23.390625 
Q 54.890625 11.625 47.5625 5.09375 
Q 40.234375 -1.421875 26.90625 -1.421875 
Q 22.3125 -1.421875 17.546875 -0.640625 
Q 12.796875 0.140625 7.71875 1.703125 
L 7.71875 11.625 
Q 12.109375 9.234375 16.796875 8.0625 
Q 21.484375 6.890625 26.703125 6.890625 
Q 35.15625 6.890625 40.078125 11.328125 
Q 45.015625 15.765625 45.015625 23.390625 
Q 45.015625 31 40.078125 35.4375 
Q 35.15625 39.890625 26.703125 39.890625 
Q 22.75 39.890625 18.8125 39.015625 
Q 14.890625 38.140625 10.796875 36.28125 
z
" id="DejaVuSans-35"/>
      </defs>
      <g transform="translate(117.97564 399.078438)scale(0.1 -0.1)">
       <use xlink:href="#DejaVuSans-2212"/>
       <use x="83.789062" xlink:href="#DejaVuSans-30"/>
       <use x="147.412109" xlink:href="#DejaVuSans-2e"/>
       <use x="179.199219" xlink:href="#DejaVuSans-35"/>
      </g>
     </g>
    </g>
    <g id="xtick_2">
     <g id="line2d_2">
      <g>
       <use style="stroke:#000000;stroke-width:0.8;" x="226.47744" xlink:href="#mf2fe237bc0" y="384.48"/>
      </g>
     </g>
     <g id="text_2">
      <!-- 0.0 -->
      <g transform="translate(218.525877 399.078438)scale(0.1 -0.1)">
       <use xlink:href="#DejaVuSans-30"/>
       <use x="63.623047" xlink:href="#DejaVuSans-2e"/>
       <use x="95.410156" xlink:href="#DejaVuSans-30"/>
      </g>
     </g>
    </g>
    <g id="xtick_3">
     <g id="line2d_3">
      <g>
       <use style="stroke:#000000;stroke-width:0.8;" x="322.837834" xlink:href="#mf2fe237bc0" y="384.48"/>
      </g>
     </g>
     <g id="text_3">
      <!-- 0.5 -->
      <g transform="translate(314.886271 399.078438)scale(0.1 -0.1)">
       <use xlink:href="#DejaVuSans-30"/>
       <use x="63.623047" xlink:href="#DejaVuSans-2e"/>
       <use x="95.410156" xlink:href="#DejaVuSans-35"/>
      </g>
     </g>
    </g>
    <g id="xtick_4">
     <g id="line2d_4">
      <g>
       <use style="stroke:#000000;stroke-width:0.8;" x="419.198228" xlink:href="#mf2fe237bc0" y="384.48"/>
      </g>
     </g>
     <g id="text_4">
      <!-- 1.0 -->
      <defs>
       <path d="M 12.40625 8.296875 
L 28.515625 8.296875 
L 28.515625 63.921875 
L 10.984375 60.40625 
L 10.984375 69.390625 
L 28.421875 72.90625 
L 38.28125 72.90625 
L 38.28125 8.296875 
L 54.390625 8.296875 
L 54.390625 0 
L 12.40625 0 
z
" id="DejaVuSans-31"/>
      </defs>
      <g transform="translate(411.246665 399.078438)scale(0.1 -0.1)">
       <use xlink:href="#DejaVuSans-31"/>
       <use x="63.623047" xlink:href="#DejaVuSans-2e"/>
       <use x="95.410156" xlink:href="#DejaVuSans-30"/>
      </g>
     </g>
    </g>
    <g id="xtick_5">
     <g id="line2d_5">
      <g>
       <use style="stroke:#000000;stroke-width:0.8;" x="515.558622" xlink:href="#mf2fe237bc0" y="384.48"/>
      </g>
     </g>
     <g id="text_5">
      <!-- 1.5 -->
      <g transform="translate(507.607059 399.078438)scale(0.1 -0.1)">
       <use xlink:href="#DejaVuSans-31"/>
       <use x="63.623047" xlink:href="#DejaVuSans-2e"/>
       <use x="95.410156" xlink:href="#DejaVuSans-35"/>
      </g>
     </g>
    </g>
    <g id="text_6">
     <!-- Logarithmic Acoustic Parameter -->
     <defs>
      <path d="M 9.8125 72.90625 
L 19.671875 72.90625 
L 19.671875 8.296875 
L 55.171875 8.296875 
L 55.171875 0 
L 9.8125 0 
z
" id="DejaVuSans-4c"/>
      <path d="M 30.609375 48.390625 
Q 23.390625 48.390625 19.1875 42.75 
Q 14.984375 37.109375 14.984375 27.296875 
Q 14.984375 17.484375 19.15625 11.84375 
Q 23.34375 6.203125 30.609375 6.203125 
Q 37.796875 6.203125 41.984375 11.859375 
Q 46.1875 17.53125 46.1875 27.296875 
Q 46.1875 37.015625 41.984375 42.703125 
Q 37.796875 48.390625 30.609375 48.390625 
z
M 30.609375 56 
Q 42.328125 56 49.015625 48.375 
Q 55.71875 40.765625 55.71875 27.296875 
Q 55.71875 13.875 49.015625 6.21875 
Q 42.328125 -1.421875 30.609375 -1.421875 
Q 18.84375 -1.421875 12.171875 6.21875 
Q 5.515625 13.875 5.515625 27.296875 
Q 5.515625 40.765625 12.171875 48.375 
Q 18.84375 56 30.609375 56 
z
" id="DejaVuSans-6f"/>
      <path d="M 45.40625 27.984375 
Q 45.40625 37.75 41.375 43.109375 
Q 37.359375 48.484375 30.078125 48.484375 
Q 22.859375 48.484375 18.828125 43.109375 
Q 14.796875 37.75 14.796875 27.984375 
Q 14.796875 18.265625 18.828125 12.890625 
Q 22.859375 7.515625 30.078125 7.515625 
Q 37.359375 7.515625 41.375 12.890625 
Q 45.40625 18.265625 45.40625 27.984375 
z
M 54.390625 6.78125 
Q 54.390625 -7.171875 48.1875 -13.984375 
Q 42 -20.796875 29.203125 -20.796875 
Q 24.46875 -20.796875 20.265625 -20.09375 
Q 16.0625 -19.390625 12.109375 -17.921875 
L 12.109375 -9.1875 
Q 16.0625 -11.328125 19.921875 -12.34375 
Q 23.78125 -13.375 27.78125 -13.375 
Q 36.625 -13.375 41.015625 -8.765625 
Q 45.40625 -4.15625 45.40625 5.171875 
L 45.40625 9.625 
Q 42.625 4.78125 38.28125 2.390625 
Q 33.9375 0 27.875 0 
Q 17.828125 0 11.671875 7.65625 
Q 5.515625 15.328125 5.515625 27.984375 
Q 5.515625 40.671875 11.671875 48.328125 
Q 17.828125 56 27.875 56 
Q 33.9375 56 38.28125 53.609375 
Q 42.625 51.21875 45.40625 46.390625 
L 45.40625 54.6875 
L 54.390625 54.6875 
z
" id="DejaVuSans-67"/>
      <path d="M 34.28125 27.484375 
Q 23.390625 27.484375 19.1875 25 
Q 14.984375 22.515625 14.984375 16.5 
Q 14.984375 11.71875 18.140625 8.90625 
Q 21.296875 6.109375 26.703125 6.109375 
Q 34.1875 6.109375 38.703125 11.40625 
Q 43.21875 16.703125 43.21875 25.484375 
L 43.21875 27.484375 
z
M 52.203125 31.203125 
L 52.203125 0 
L 43.21875 0 
L 43.21875 8.296875 
Q 40.140625 3.328125 35.546875 0.953125 
Q 30.953125 -1.421875 24.3125 -1.421875 
Q 15.921875 -1.421875 10.953125 3.296875 
Q 6 8.015625 6 15.921875 
Q 6 25.140625 12.171875 29.828125 
Q 18.359375 34.515625 30.609375 34.515625 
L 43.21875 34.515625 
L 43.21875 35.40625 
Q 43.21875 41.609375 39.140625 45 
Q 35.0625 48.390625 27.6875 48.390625 
Q 23 48.390625 18.546875 47.265625 
Q 14.109375 46.140625 10.015625 43.890625 
L 10.015625 52.203125 
Q 14.9375 54.109375 19.578125 55.046875 
Q 24.21875 56 28.609375 56 
Q 40.484375 56 46.34375 49.84375 
Q 52.203125 43.703125 52.203125 31.203125 
z
" id="DejaVuSans-61"/>
      <path d="M 41.109375 46.296875 
Q 39.59375 47.171875 37.8125 47.578125 
Q 36.03125 48 33.890625 48 
Q 26.265625 48 22.1875 43.046875 
Q 18.109375 38.09375 18.109375 28.8125 
L 18.109375 0 
L 9.078125 0 
L 9.078125 54.6875 
L 18.109375 54.6875 
L 18.109375 46.1875 
Q 20.953125 51.171875 25.484375 53.578125 
Q 30.03125 56 36.53125 56 
Q 37.453125 56 38.578125 55.875 
Q 39.703125 55.765625 41.0625 55.515625 
z
" id="DejaVuSans-72"/>
      <path d="M 9.421875 54.6875 
L 18.40625 54.6875 
L 18.40625 0 
L 9.421875 0 
z
M 9.421875 75.984375 
L 18.40625 75.984375 
L 18.40625 64.59375 
L 9.421875 64.59375 
z
" id="DejaVuSans-69"/>
      <path d="M 18.3125 70.21875 
L 18.3125 54.6875 
L 36.8125 54.6875 
L 36.8125 47.703125 
L 18.3125 47.703125 
L 18.3125 18.015625 
Q 18.3125 11.328125 20.140625 9.421875 
Q 21.96875 7.515625 27.59375 7.515625 
L 36.8125 7.515625 
L 36.8125 0 
L 27.59375 0 
Q 17.1875 0 13.234375 3.875 
Q 9.28125 7.765625 9.28125 18.015625 
L 9.28125 47.703125 
L 2.6875 47.703125 
L 2.6875 54.6875 
L 9.28125 54.6875 
L 9.28125 70.21875 
z
" id="DejaVuSans-74"/>
      <path d="M 54.890625 33.015625 
L 54.890625 0 
L 45.90625 0 
L 45.90625 32.71875 
Q 45.90625 40.484375 42.875 44.328125 
Q 39.84375 48.1875 33.796875 48.1875 
Q 26.515625 48.1875 22.3125 43.546875 
Q 18.109375 38.921875 18.109375 30.90625 
L 18.109375 0 
L 9.078125 0 
L 9.078125 75.984375 
L 18.109375 75.984375 
L 18.109375 46.1875 
Q 21.34375 51.125 25.703125 53.5625 
Q 30.078125 56 35.796875 56 
Q 45.21875 56 50.046875 50.171875 
Q 54.890625 44.34375 54.890625 33.015625 
z
" id="DejaVuSans-68"/>
      <path d="M 52 44.1875 
Q 55.375 50.25 60.0625 53.125 
Q 64.75 56 71.09375 56 
Q 79.640625 56 84.28125 50.015625 
Q 88.921875 44.046875 88.921875 33.015625 
L 88.921875 0 
L 79.890625 0 
L 79.890625 32.71875 
Q 79.890625 40.578125 77.09375 44.375 
Q 74.3125 48.1875 68.609375 48.1875 
Q 61.625 48.1875 57.5625 43.546875 
Q 53.515625 38.921875 53.515625 30.90625 
L 53.515625 0 
L 44.484375 0 
L 44.484375 32.71875 
Q 44.484375 40.625 41.703125 44.40625 
Q 38.921875 48.1875 33.109375 48.1875 
Q 26.21875 48.1875 22.15625 43.53125 
Q 18.109375 38.875 18.109375 30.90625 
L 18.109375 0 
L 9.078125 0 
L 9.078125 54.6875 
L 18.109375 54.6875 
L 18.109375 46.1875 
Q 21.1875 51.21875 25.484375 53.609375 
Q 29.78125 56 35.6875 56 
Q 41.65625 56 45.828125 52.96875 
Q 50 49.953125 52 44.1875 
z
" id="DejaVuSans-6d"/>
      <path d="M 48.78125 52.59375 
L 48.78125 44.1875 
Q 44.96875 46.296875 41.140625 47.34375 
Q 37.3125 48.390625 33.40625 48.390625 
Q 24.65625 48.390625 19.8125 42.84375 
Q 14.984375 37.3125 14.984375 27.296875 
Q 14.984375 17.28125 19.8125 11.734375 
Q 24.65625 6.203125 33.40625 6.203125 
Q 37.3125 6.203125 41.140625 7.25 
Q 44.96875 8.296875 48.78125 10.40625 
L 48.78125 2.09375 
Q 45.015625 0.34375 40.984375 -0.53125 
Q 36.96875 -1.421875 32.421875 -1.421875 
Q 20.0625 -1.421875 12.78125 6.34375 
Q 5.515625 14.109375 5.515625 27.296875 
Q 5.515625 40.671875 12.859375 48.328125 
Q 20.21875 56 33.015625 56 
Q 37.15625 56 41.109375 55.140625 
Q 45.0625 54.296875 48.78125 52.59375 
z
" id="DejaVuSans-63"/>
      <path id="DejaVuSans-20"/>
      <path d="M 34.1875 63.1875 
L 20.796875 26.90625 
L 47.609375 26.90625 
z
M 28.609375 72.90625 
L 39.796875 72.90625 
L 67.578125 0 
L 57.328125 0 
L 50.6875 18.703125 
L 17.828125 18.703125 
L 11.1875 0 
L 0.78125 0 
z
" id="DejaVuSans-41"/>
      <path d="M 8.5 21.578125 
L 8.5 54.6875 
L 17.484375 54.6875 
L 17.484375 21.921875 
Q 17.484375 14.15625 20.5 10.265625 
Q 23.53125 6.390625 29.59375 6.390625 
Q 36.859375 6.390625 41.078125 11.03125 
Q 45.3125 15.671875 45.3125 23.6875 
L 45.3125 54.6875 
L 54.296875 54.6875 
L 54.296875 0 
L 45.3125 0 
L 45.3125 8.40625 
Q 42.046875 3.421875 37.71875 1 
Q 33.40625 -1.421875 27.6875 -1.421875 
Q 18.265625 -1.421875 13.375 4.4375 
Q 8.5 10.296875 8.5 21.578125 
z
M 31.109375 56 
z
" id="DejaVuSans-75"/>
      <path d="M 44.28125 53.078125 
L 44.28125 44.578125 
Q 40.484375 46.53125 36.375 47.5 
Q 32.28125 48.484375 27.875 48.484375 
Q 21.1875 48.484375 17.84375 46.4375 
Q 14.5 44.390625 14.5 40.28125 
Q 14.5 37.15625 16.890625 35.375 
Q 19.28125 33.59375 26.515625 31.984375 
L 29.59375 31.296875 
Q 39.15625 29.25 43.1875 25.515625 
Q 47.21875 21.78125 47.21875 15.09375 
Q 47.21875 7.46875 41.1875 3.015625 
Q 35.15625 -1.421875 24.609375 -1.421875 
Q 20.21875 -1.421875 15.453125 -0.5625 
Q 10.6875 0.296875 5.421875 2 
L 5.421875 11.28125 
Q 10.40625 8.6875 15.234375 7.390625 
Q 20.0625 6.109375 24.8125 6.109375 
Q 31.15625 6.109375 34.5625 8.28125 
Q 37.984375 10.453125 37.984375 14.40625 
Q 37.984375 18.0625 35.515625 20.015625 
Q 33.0625 21.96875 24.703125 23.78125 
L 21.578125 24.515625 
Q 13.234375 26.265625 9.515625 29.90625 
Q 5.8125 33.546875 5.8125 39.890625 
Q 5.8125 47.609375 11.28125 51.796875 
Q 16.75 56 26.8125 56 
Q 31.78125 56 36.171875 55.265625 
Q 40.578125 54.546875 44.28125 53.078125 
z
" id="DejaVuSans-73"/>
      <path d="M 19.671875 64.796875 
L 19.671875 37.40625 
L 32.078125 37.40625 
Q 38.96875 37.40625 42.71875 40.96875 
Q 46.484375 44.53125 46.484375 51.125 
Q 46.484375 57.671875 42.71875 61.234375 
Q 38.96875 64.796875 32.078125 64.796875 
z
M 9.8125 72.90625 
L 32.078125 72.90625 
Q 44.34375 72.90625 50.609375 67.359375 
Q 56.890625 61.8125 56.890625 51.125 
Q 56.890625 40.328125 50.609375 34.8125 
Q 44.34375 29.296875 32.078125 29.296875 
L 19.671875 29.296875 
L 19.671875 0 
L 9.8125 0 
z
" id="DejaVuSans-50"/>
      <path d="M 56.203125 29.59375 
L 56.203125 25.203125 
L 14.890625 25.203125 
Q 15.484375 15.921875 20.484375 11.0625 
Q 25.484375 6.203125 34.421875 6.203125 
Q 39.59375 6.203125 44.453125 7.46875 
Q 49.3125 8.734375 54.109375 11.28125 
L 54.109375 2.78125 
Q 49.265625 0.734375 44.1875 -0.34375 
Q 39.109375 -1.421875 33.890625 -1.421875 
Q 20.796875 -1.421875 13.15625 6.1875 
Q 5.515625 13.8125 5.515625 26.8125 
Q 5.515625 40.234375 12.765625 48.109375 
Q 20.015625 56 32.328125 56 
Q 43.359375 56 49.78125 48.890625 
Q 56.203125 41.796875 56.203125 29.59375 
z
M 47.21875 32.234375 
Q 47.125 39.59375 43.09375 43.984375 
Q 39.0625 48.390625 32.421875 48.390625 
Q 24.90625 48.390625 20.390625 44.140625 
Q 15.875 39.890625 15.1875 32.171875 
z
" id="DejaVuSans-65"/>
     </defs>
     <g transform="translate(215.022656 412.756563)scale(0.1 -0.1)">
      <use xlink:href="#DejaVuSans-4c"/>
      <use x="55.697266" xlink:href="#DejaVuSans-6f"/>
      <use x="116.878906" xlink:href="#DejaVuSans-67"/>
      <use x="180.355469" xlink:href="#DejaVuSans-61"/>
      <use x="241.634766" xlink:href="#DejaVuSans-72"/>
      <use x="282.748047" xlink:href="#DejaVuSans-69"/>
      <use x="310.53125" xlink:href="#DejaVuSans-74"/>
      <use x="349.740234" xlink:href="#DejaVuSans-68"/>
      <use x="413.119141" xlink:href="#DejaVuSans-6d"/>
      <use x="510.53125" xlink:href="#DejaVuSans-69"/>
      <use x="538.314453" xlink:href="#DejaVuSans-63"/>
      <use x="593.294922" xlink:href="#DejaVuSans-20"/>
      <use x="625.082031" xlink:href="#DejaVuSans-41"/>
      <use x="693.474609" xlink:href="#DejaVuSans-63"/>
      <use x="748.455078" xlink:href="#DejaVuSans-6f"/>
      <use x="809.636719" xlink:href="#DejaVuSans-75"/>
      <use x="873.015625" xlink:href="#DejaVuSans-73"/>
      <use x="925.115234" xlink:href="#DejaVuSans-74"/>
      <use x="964.324219" xlink:href="#DejaVuSans-69"/>
      <use x="992.107422" xlink:href="#DejaVuSans-63"/>
      <use x="1047.087891" xlink:href="#DejaVuSans-20"/>
      <use x="1078.875" xlink:href="#DejaVuSans-50"/>
      <use x="1139.115234" xlink:href="#DejaVuSans-61"/>
      <use x="1200.394531" xlink:href="#DejaVuSans-72"/>
      <use x="1241.507812" xlink:href="#DejaVuSans-61"/>
      <use x="1302.787109" xlink:href="#DejaVuSans-6d"/>
      <use x="1400.199219" xlink:href="#DejaVuSans-65"/>
      <use x="1461.722656" xlink:href="#DejaVuSans-74"/>
      <use x="1500.931641" xlink:href="#DejaVuSans-65"/>
      <use x="1562.455078" xlink:href="#DejaVuSans-72"/>
     </g>
    </g>
   </g>
   <g id="matplotlib.axis_2">
    <g id="ytick_1">
     <g id="line2d_6">
      <defs>
       <path d="M 0 0 
L -3.5 0 
" id="me188e5562a" style="stroke:#000000;stroke-width:0.8;"/>
      </defs>
      <g>
       <use style="stroke:#000000;stroke-width:0.8;" x="72" xlink:href="#me188e5562a" y="367.511735"/>
      </g>
     </g>
     <g id="text_7">
      <!-- 0.0 -->
      <g transform="translate(49.096875 371.310954)scale(0.1 -0.1)">
       <use xlink:href="#DejaVuSans-30"/>
       <use x="63.623047" xlink:href="#DejaVuSans-2e"/>
       <use x="95.410156" xlink:href="#DejaVuSans-30"/>
      </g>
     </g>
    </g>
    <g id="ytick_2">
     <g id="line2d_7">
      <g>
       <use style="stroke:#000000;stroke-width:0.8;" x="72" xlink:href="#me188e5562a" y="307.753065"/>
      </g>
     </g>
     <g id="text_8">
      <!-- 0.2 -->
      <defs>
       <path d="M 19.1875 8.296875 
L 53.609375 8.296875 
L 53.609375 0 
L 7.328125 0 
L 7.328125 8.296875 
Q 12.9375 14.109375 22.625 23.890625 
Q 32.328125 33.6875 34.8125 36.53125 
Q 39.546875 41.84375 41.421875 45.53125 
Q 43.3125 49.21875 43.3125 52.78125 
Q 43.3125 58.59375 39.234375 62.25 
Q 35.15625 65.921875 28.609375 65.921875 
Q 23.96875 65.921875 18.8125 64.3125 
Q 13.671875 62.703125 7.8125 59.421875 
L 7.8125 69.390625 
Q 13.765625 71.78125 18.9375 73 
Q 24.125 74.21875 28.421875 74.21875 
Q 39.75 74.21875 46.484375 68.546875 
Q 53.21875 62.890625 53.21875 53.421875 
Q 53.21875 48.921875 51.53125 44.890625 
Q 49.859375 40.875 45.40625 35.40625 
Q 44.1875 33.984375 37.640625 27.21875 
Q 31.109375 20.453125 19.1875 8.296875 
z
" id="DejaVuSans-32"/>
      </defs>
      <g transform="translate(49.096875 311.552283)scale(0.1 -0.1)">
       <use xlink:href="#DejaVuSans-30"/>
       <use x="63.623047" xlink:href="#DejaVuSans-2e"/>
       <use x="95.410156" xlink:href="#DejaVuSans-32"/>
      </g>
     </g>
    </g>
    <g id="ytick_3">
     <g id="line2d_8">
      <g>
       <use style="stroke:#000000;stroke-width:0.8;" x="72" xlink:href="#me188e5562a" y="247.994394"/>
      </g>
     </g>
     <g id="text_9">
      <!-- 0.4 -->
      <defs>
       <path d="M 37.796875 64.3125 
L 12.890625 25.390625 
L 37.796875 25.390625 
z
M 35.203125 72.90625 
L 47.609375 72.90625 
L 47.609375 25.390625 
L 58.015625 25.390625 
L 58.015625 17.1875 
L 47.609375 17.1875 
L 47.609375 0 
L 37.796875 0 
L 37.796875 17.1875 
L 4.890625 17.1875 
L 4.890625 26.703125 
z
" id="DejaVuSans-34"/>
      </defs>
      <g transform="translate(49.096875 251.793613)scale(0.1 -0.1)">
       <use xlink:href="#DejaVuSans-30"/>
       <use x="63.623047" xlink:href="#DejaVuSans-2e"/>
       <use x="95.410156" xlink:href="#DejaVuSans-34"/>
      </g>
     </g>
    </g>
    <g id="ytick_4">
     <g id="line2d_9">
      <g>
       <use style="stroke:#000000;stroke-width:0.8;" x="72" xlink:href="#me188e5562a" y="188.235723"/>
      </g>
     </g>
     <g id="text_10">
      <!-- 0.6 -->
      <defs>
       <path d="M 33.015625 40.375 
Q 26.375 40.375 22.484375 35.828125 
Q 18.609375 31.296875 18.609375 23.390625 
Q 18.609375 15.53125 22.484375 10.953125 
Q 26.375 6.390625 33.015625 6.390625 
Q 39.65625 6.390625 43.53125 10.953125 
Q 47.40625 15.53125 47.40625 23.390625 
Q 47.40625 31.296875 43.53125 35.828125 
Q 39.65625 40.375 33.015625 40.375 
z
M 52.59375 71.296875 
L 52.59375 62.3125 
Q 48.875 64.0625 45.09375 64.984375 
Q 41.3125 65.921875 37.59375 65.921875 
Q 27.828125 65.921875 22.671875 59.328125 
Q 17.53125 52.734375 16.796875 39.40625 
Q 19.671875 43.65625 24.015625 45.921875 
Q 28.375 48.1875 33.59375 48.1875 
Q 44.578125 48.1875 50.953125 41.515625 
Q 57.328125 34.859375 57.328125 23.390625 
Q 57.328125 12.15625 50.6875 5.359375 
Q 44.046875 -1.421875 33.015625 -1.421875 
Q 20.359375 -1.421875 13.671875 8.265625 
Q 6.984375 17.96875 6.984375 36.375 
Q 6.984375 53.65625 15.1875 63.9375 
Q 23.390625 74.21875 37.203125 74.21875 
Q 40.921875 74.21875 44.703125 73.484375 
Q 48.484375 72.75 52.59375 71.296875 
z
" id="DejaVuSans-36"/>
      </defs>
      <g transform="translate(49.096875 192.034942)scale(0.1 -0.1)">
       <use xlink:href="#DejaVuSans-30"/>
       <use x="63.623047" xlink:href="#DejaVuSans-2e"/>
       <use x="95.410156" xlink:href="#DejaVuSans-36"/>
      </g>
     </g>
    </g>
    <g id="ytick_5">
     <g id="line2d_10">
      <g>
       <use style="stroke:#000000;stroke-width:0.8;" x="72" xlink:href="#me188e5562a" y="128.477053"/>
      </g>
     </g>
     <g id="text_11">
      <!-- 0.8 -->
      <defs>
       <path d="M 31.78125 34.625 
Q 24.75 34.625 20.71875 30.859375 
Q 16.703125 27.09375 16.703125 20.515625 
Q 16.703125 13.921875 20.71875 10.15625 
Q 24.75 6.390625 31.78125 6.390625 
Q 38.8125 6.390625 42.859375 10.171875 
Q 46.921875 13.96875 46.921875 20.515625 
Q 46.921875 27.09375 42.890625 30.859375 
Q 38.875 34.625 31.78125 34.625 
z
M 21.921875 38.8125 
Q 15.578125 40.375 12.03125 44.71875 
Q 8.5 49.078125 8.5 55.328125 
Q 8.5 64.0625 14.71875 69.140625 
Q 20.953125 74.21875 31.78125 74.21875 
Q 42.671875 74.21875 48.875 69.140625 
Q 55.078125 64.0625 55.078125 55.328125 
Q 55.078125 49.078125 51.53125 44.71875 
Q 48 40.375 41.703125 38.8125 
Q 48.828125 37.15625 52.796875 32.3125 
Q 56.78125 27.484375 56.78125 20.515625 
Q 56.78125 9.90625 50.3125 4.234375 
Q 43.84375 -1.421875 31.78125 -1.421875 
Q 19.734375 -1.421875 13.25 4.234375 
Q 6.78125 9.90625 6.78125 20.515625 
Q 6.78125 27.484375 10.78125 32.3125 
Q 14.796875 37.15625 21.921875 38.8125 
z
M 18.3125 54.390625 
Q 18.3125 48.734375 21.84375 45.5625 
Q 25.390625 42.390625 31.78125 42.390625 
Q 38.140625 42.390625 41.71875 45.5625 
Q 45.3125 48.734375 45.3125 54.390625 
Q 45.3125 60.0625 41.71875 63.234375 
Q 38.140625 66.40625 31.78125 66.40625 
Q 25.390625 66.40625 21.84375 63.234375 
Q 18.3125 60.0625 18.3125 54.390625 
z
" id="DejaVuSans-38"/>
      </defs>
      <g transform="translate(49.096875 132.276271)scale(0.1 -0.1)">
       <use xlink:href="#DejaVuSans-30"/>
       <use x="63.623047" xlink:href="#DejaVuSans-2e"/>
       <use x="95.410156" xlink:href="#DejaVuSans-38"/>
      </g>
     </g>
    </g>
    <g id="ytick_6">
     <g id="line2d_11">
      <g>
       <use style="stroke:#000000;stroke-width:0.8;" x="72" xlink:href="#me188e5562a" y="68.718382"/>
      </g>
     </g>
     <g id="text_12">
      <!-- 1.0 -->
      <g transform="translate(49.096875 72.517601)scale(0.1 -0.1)">
       <use xlink:href="#DejaVuSans-31"/>
       <use x="63.623047" xlink:href="#DejaVuSans-2e"/>
       <use x="95.410156" xlink:href="#DejaVuSans-30"/>
      </g>
     </g>
    </g>
    <g id="text_13">
     <!-- Neural Network Prediction -->
     <defs>
      <path d="M 9.8125 72.90625 
L 23.09375 72.90625 
L 55.421875 11.921875 
L 55.421875 72.90625 
L 64.984375 72.90625 
L 64.984375 0 
L 51.703125 0 
L 19.390625 60.984375 
L 19.390625 0 
L 9.8125 0 
z
" id="DejaVuSans-4e"/>
      <path d="M 9.421875 75.984375 
L 18.40625 75.984375 
L 18.40625 0 
L 9.421875 0 
z
" id="DejaVuSans-6c"/>
      <path d="M 4.203125 54.6875 
L 13.1875 54.6875 
L 24.421875 12.015625 
L 35.59375 54.6875 
L 46.1875 54.6875 
L 57.421875 12.015625 
L 68.609375 54.6875 
L 77.59375 54.6875 
L 63.28125 0 
L 52.6875 0 
L 40.921875 44.828125 
L 29.109375 0 
L 18.5 0 
z
" id="DejaVuSans-77"/>
      <path d="M 9.078125 75.984375 
L 18.109375 75.984375 
L 18.109375 31.109375 
L 44.921875 54.6875 
L 56.390625 54.6875 
L 27.390625 29.109375 
L 57.625 0 
L 45.90625 0 
L 18.109375 26.703125 
L 18.109375 0 
L 9.078125 0 
z
" id="DejaVuSans-6b"/>
      <path d="M 45.40625 46.390625 
L 45.40625 75.984375 
L 54.390625 75.984375 
L 54.390625 0 
L 45.40625 0 
L 45.40625 8.203125 
Q 42.578125 3.328125 38.25 0.953125 
Q 33.9375 -1.421875 27.875 -1.421875 
Q 17.96875 -1.421875 11.734375 6.484375 
Q 5.515625 14.40625 5.515625 27.296875 
Q 5.515625 40.1875 11.734375 48.09375 
Q 17.96875 56 27.875 56 
Q 33.9375 56 38.25 53.625 
Q 42.578125 51.265625 45.40625 46.390625 
z
M 14.796875 27.296875 
Q 14.796875 17.390625 18.875 11.75 
Q 22.953125 6.109375 30.078125 6.109375 
Q 37.203125 6.109375 41.296875 11.75 
Q 45.40625 17.390625 45.40625 27.296875 
Q 45.40625 37.203125 41.296875 42.84375 
Q 37.203125 48.484375 30.078125 48.484375 
Q 22.953125 48.484375 18.875 42.84375 
Q 14.796875 37.203125 14.796875 27.296875 
z
" id="DejaVuSans-64"/>
      <path d="M 54.890625 33.015625 
L 54.890625 0 
L 45.90625 0 
L 45.90625 32.71875 
Q 45.90625 40.484375 42.875 44.328125 
Q 39.84375 48.1875 33.796875 48.1875 
Q 26.515625 48.1875 22.3125 43.546875 
Q 18.109375 38.921875 18.109375 30.90625 
L 18.109375 0 
L 9.078125 0 
L 9.078125 54.6875 
L 18.109375 54.6875 
L 18.109375 46.1875 
Q 21.34375 51.125 25.703125 53.5625 
Q 30.078125 56 35.796875 56 
Q 45.21875 56 50.046875 50.171875 
Q 54.890625 44.34375 54.890625 33.015625 
z
" id="DejaVuSans-6e"/>
     </defs>
     <g transform="translate(43.017187 283.743594)rotate(-90)scale(0.1 -0.1)">
      <use xlink:href="#DejaVuSans-4e"/>
      <use x="74.804688" xlink:href="#DejaVuSans-65"/>
      <use x="136.328125" xlink:href="#DejaVuSans-75"/>
      <use x="199.707031" xlink:href="#DejaVuSans-72"/>
      <use x="240.820312" xlink:href="#DejaVuSans-61"/>
      <use x="302.099609" xlink:href="#DejaVuSans-6c"/>
      <use x="329.882812" xlink:href="#DejaVuSans-20"/>
      <use x="361.669922" xlink:href="#DejaVuSans-4e"/>
      <use x="436.474609" xlink:href="#DejaVuSans-65"/>
      <use x="497.998047" xlink:href="#DejaVuSans-74"/>
      <use x="537.207031" xlink:href="#DejaVuSans-77"/>
      <use x="618.994141" xlink:href="#DejaVuSans-6f"/>
      <use x="680.175781" xlink:href="#DejaVuSans-72"/>
      <use x="721.289062" xlink:href="#DejaVuSans-6b"/>
      <use x="779.199219" xlink:href="#DejaVuSans-20"/>
      <use x="810.986328" xlink:href="#DejaVuSans-50"/>
      <use x="871.273438" xlink:href="#DejaVuSans-72"/>
      <use x="912.355469" xlink:href="#DejaVuSans-65"/>
      <use x="973.878906" xlink:href="#DejaVuSans-64"/>
      <use x="1037.355469" xlink:href="#DejaVuSans-69"/>
      <use x="1065.138672" xlink:href="#DejaVuSans-63"/>
      <use x="1120.119141" xlink:href="#DejaVuSans-74"/>
      <use x="1159.328125" xlink:href="#DejaVuSans-69"/>
      <use x="1187.111328" xlink:href="#DejaVuSans-6f"/>
      <use x="1248.292969" xlink:href="#DejaVuSans-6e"/>
     </g>
    </g>
   </g>
   <g id="patch_3">
    <path d="M 72 384.48 
L 72 51.84 
" style="fill:none;stroke:#000000;stroke-linecap:square;stroke-linejoin:miter;stroke-width:0.8;"/>
   </g>
   <g id="patch_4">
    <path d="M 518.4 384.48 
L 518.4 51.84 
" style="fill:none;stroke:#000000;stroke-linecap:square;stroke-linejoin:miter;stroke-width:0.8;"/>
   </g>
   <g id="patch_5">
    <path d="M 72 384.48 
L 518.4 384.48 
" style="fill:none;stroke:#000000;stroke-linecap:square;stroke-linejoin:miter;stroke-width:0.8;"/>
   </g>
   <g id="patch_6">
    <path d="M 72 51.84 
L 518.4 51.84 
" style="fill:none;stroke:#000000;stroke-linecap:square;stroke-linejoin:miter;stroke-width:0.8;"/>
   </g>
   <g id="legend_1">
    <g id="patch_7">
     <path d="M 79 89.19625 
L 185.210938 89.19625 
Q 187.210938 89.19625 187.210938 87.19625 
L 187.210938 58.84 
Q 187.210938 56.84 185.210938 56.84 
L 79 56.84 
Q 77 56.84 77 58.84 
L 77 87.19625 
Q 77 89.19625 79 89.19625 
z
" style="fill:#ffffff;opacity:0.8;stroke:#cccccc;stroke-linejoin:miter;"/>
    </g>
    <g id="patch_8">
     <path d="M 81 68.438437 
L 101 68.438437 
L 101 61.438437 
L 81 61.438437 
z
" style="fill:#ff0000;stroke:#ff0000;stroke-linejoin:miter;"/>
    </g>
    <g id="text_14">
     <!-- Alpha Particles -->
     <defs>
      <path d="M 18.109375 8.203125 
L 18.109375 -20.796875 
L 9.078125 -20.796875 
L 9.078125 54.6875 
L 18.109375 54.6875 
L 18.109375 46.390625 
Q 20.953125 51.265625 25.265625 53.625 
Q 29.59375 56 35.59375 56 
Q 45.5625 56 51.78125 48.09375 
Q 58.015625 40.1875 58.015625 27.296875 
Q 58.015625 14.40625 51.78125 6.484375 
Q 45.5625 -1.421875 35.59375 -1.421875 
Q 29.59375 -1.421875 25.265625 0.953125 
Q 20.953125 3.328125 18.109375 8.203125 
z
M 48.6875 27.296875 
Q 48.6875 37.203125 44.609375 42.84375 
Q 40.53125 48.484375 33.40625 48.484375 
Q 26.265625 48.484375 22.1875 42.84375 
Q 18.109375 37.203125 18.109375 27.296875 
Q 18.109375 17.390625 22.1875 11.75 
Q 26.265625 6.109375 33.40625 6.109375 
Q 40.53125 6.109375 44.609375 11.75 
Q 48.6875 17.390625 48.6875 27.296875 
z
" id="DejaVuSans-70"/>
     </defs>
     <g transform="translate(109 68.438437)scale(0.1 -0.1)">
      <use xlink:href="#DejaVuSans-41"/>
      <use x="68.408203" xlink:href="#DejaVuSans-6c"/>
      <use x="96.191406" xlink:href="#DejaVuSans-70"/>
      <use x="159.667969" xlink:href="#DejaVuSans-68"/>
      <use x="223.046875" xlink:href="#DejaVuSans-61"/>
      <use x="284.326172" xlink:href="#DejaVuSans-20"/>
      <use x="316.113281" xlink:href="#DejaVuSans-50"/>
      <use x="376.353516" xlink:href="#DejaVuSans-61"/>
      <use x="437.632812" xlink:href="#DejaVuSans-72"/>
      <use x="478.746094" xlink:href="#DejaVuSans-74"/>
      <use x="517.955078" xlink:href="#DejaVuSans-69"/>
      <use x="545.738281" xlink:href="#DejaVuSans-63"/>
      <use x="600.71875" xlink:href="#DejaVuSans-6c"/>
      <use x="628.501953" xlink:href="#DejaVuSans-65"/>
      <use x="690.025391" xlink:href="#DejaVuSans-73"/>
     </g>
    </g>
    <g id="patch_9">
     <path d="M 81 83.116562 
L 101 83.116562 
L 101 76.116562 
L 81 76.116562 
z
" style="fill:#0000ff;stroke:#0000ff;stroke-linejoin:miter;"/>
    </g>
    <g id="text_15">
     <!-- Neutrons -->
     <g transform="translate(109 83.116562)scale(0.1 -0.1)">
      <use xlink:href="#DejaVuSans-4e"/>
      <use x="74.804688" xlink:href="#DejaVuSans-65"/>
      <use x="136.328125" xlink:href="#DejaVuSans-75"/>
      <use x="199.707031" xlink:href="#DejaVuSans-74"/>
      <use x="238.916016" xlink:href="#DejaVuSans-72"/>
      <use x="279.998047" xlink:href="#DejaVuSans-6f"/>
      <use x="341.179688" xlink:href="#DejaVuSans-6e"/>
      <use x="404.558594" xlink:href="#DejaVuSans-73"/>
     </g>
    </g>
   </g>
  </g>
 </g>
 <defs>
  <clipPath id="p21799af908">
   <rect height="332.64" width="446.4" x="72" y="51.84"/>
  </clipPath>
 </defs>
</svg>
